<?xml version="1.0" standalone="no"?>
<!DOCTYPE svg PUBLIC "-//W3C//DTD SVG 20010904//EN"
 "http://www.w3.org/TR/2001/REC-SVG-20010904/DTD/svg10.dtd">
<svg version="1.0" xmlns="http://www.w3.org/2000/svg"
 width="300.000000pt" height="88.000000pt" viewBox="0 0 300.000000 88.000000"
 preserveAspectRatio="xMidYMid meet">
<metadata>
Created by potrace 1.10, written by Peter Selinger 2001-2011
</metadata>
<g transform="translate(0.000000,88.000000) scale(0.100000,-0.100000)"
fill="#c71585" stroke="none">
<path d="M575 868 c48 -18 47 -30 -5 -65 -27 -18 -51 -37 -54 -41 -3 -6 -23
-5 -47 2 -40 10 -42 10 -70 -24 -76 -89 -109 -169 -109 -262 0 -35 -4 -57 -10
-53 -5 3 -7 13 -4 23 5 15 4 15 -8 2 -22 -25 -36 -21 -34 8 1 15 5 32 9 39 4
6 2 15 -4 19 -7 4 -9 3 -5 -4 3 -6 1 -14 -5 -17 -5 -4 -8 -14 -5 -22 9 -22 -3
-36 -19 -23 -7 6 -19 9 -26 8 -8 -2 -13 3 -11 10 1 6 -2 12 -8 12 -5 0 -10 8
-11 18 0 10 -3 12 -6 5 -2 -7 -9 -13 -14 -13 -4 0 -5 7 -2 17 4 10 2 14 -4 10
-12 -8 -26 20 -17 34 3 5 0 8 -8 7 -7 -2 -12 5 -12 15 2 20 -12 23 -19 5 -3
-9 -7 -7 -12 5 -9 20 10 47 34 47 14 0 14 -2 1 -10 -8 -5 -10 -10 -4 -10 6 0
14 3 18 7 9 10 36 13 36 4 0 -4 12 -7 28 -7 17 1 26 -4 24 -12 -1 -7 3 -12 10
-11 31 4 59 -2 53 -11 -3 -5 -1 -10 5 -10 6 0 8 -5 4 -12 -5 -9 -2 -8 9 1 14
11 15 16 5 29 -20 23 -98 53 -153 58 -73 7 -103 11 -114 19 -13 8 -14 1 -2
-23 74 -151 139 -210 250 -228 32 -5 45 -13 52 -31 5 -13 14 -21 20 -18 7 5 4
16 -7 32 -14 23 -14 25 -1 20 9 -3 21 1 28 9 11 13 9 14 -14 9 -15 -4 -27 -3
-28 1 0 5 -2 20 -5 34 -4 24 -3 24 11 6 8 -10 12 -23 8 -29 -3 -6 -1 -7 5 -3
13 8 4 38 -14 49 -7 4 -10 15 -7 23 3 9 7 25 8 37 4 37 5 38 15 32 6 -3 10 3
10 15 0 12 4 19 9 16 5 -3 7 -16 3 -28 -3 -14 -2 -19 7 -14 6 4 8 12 5 18 -5
8 -1 9 12 5 16 -6 17 -5 4 5 -16 14 -20 63 -4 63 5 0 9 -4 8 -10 -1 -5 10 -11
23 -11 12 -1 23 2 23 8 0 5 -4 6 -10 3 -5 -3 -10 1 -10 10 0 9 -4 13 -10 10
-17 -10 -11 32 7 46 9 8 18 13 20 12 1 -2 4 -3 6 -2 22 7 57 7 57 0 0 -6 13
-2 30 7 16 9 30 22 30 27 0 6 15 16 33 23 56 20 63 13 16 -16 -24 -16 -57 -41
-73 -55 -16 -15 -33 -27 -38 -27 -5 0 -6 -5 -3 -11 5 -6 12 -4 22 8 14 17 14
17 9 -2 -6 -19 -5 -18 13 2 10 12 22 19 26 15 5 -4 5 1 2 10 -5 13 2 22 26 35
18 9 36 16 40 15 5 -1 5 3 1 9 -5 9 -2 10 9 6 19 -7 24 17 7 28 -6 4 -8 11 -4
16 3 6 3 20 0 33 -4 18 -13 22 -48 24 -42 1 -43 1 -13 -10z m-218 -230 c-3 -8
-6 -5 -6 6 -1 11 2 17 5 13 3 -3 4 -12 1 -19z"/>
<path d="M669 863 c-13 -17 -13 -17 6 -3 11 8 22 16 24 17 2 2 0 3 -6 3 -6 0
-17 -8 -24 -17z"/>
<path d="M946 872 c-12 -11 -6 -21 9 -16 8 4 15 2 15 -4 0 -6 -4 -12 -10 -14
-6 -2 -6 -13 0 -33 10 -29 10 -29 6 -2 -2 15 1 28 5 28 29 4 35 4 41 -5 4 -6
2 -16 -4 -23 -7 -9 -7 -13 1 -13 6 0 11 5 11 10 0 15 15 12 37 -8 18 -15 19
-20 8 -35 -6 -9 -16 -13 -20 -9 -5 4 -5 1 -1 -6 6 -9 13 -7 31 10 l24 23 -21
22 c-12 13 -25 23 -29 23 -4 0 -20 11 -34 24 -26 25 -60 38 -69 28z"/>
<path d="M1203 873 c-16 -6 -17 -40 -1 -45 8 -3 5 -16 -10 -42 -24 -41 -28
-56 -11 -39 6 6 19 9 28 6 13 -4 13 -3 2 5 -12 8 -11 13 2 32 8 12 13 29 10
36 -3 8 1 14 8 14 11 0 11 3 -1 10 -13 9 -13 11 0 20 13 9 13 10 0 9 -8 0 -21
-3 -27 -6z"/>
<path d="M1273 873 c-7 -2 -13 -11 -13 -18 0 -8 -6 -18 -12 -22 -14 -9 -20
-63 -8 -63 4 0 11 11 14 25 4 14 16 35 28 47 19 19 21 20 14 2 -19 -47 -27
-86 -20 -107 5 -12 7 -25 6 -29 -1 -5 2 -8 7 -8 6 0 8 -16 7 -35 -2 -19 0 -32
5 -29 5 3 9 1 9 -5 0 -5 8 -9 19 -8 17 1 17 4 -5 52 -13 27 -24 56 -24 63 0 6
-4 12 -9 12 -10 0 -1 47 18 93 6 16 11 30 11 33 0 5 -32 4 -47 -3z"/>
<path d="M1422 869 c-18 -7 -22 -14 -17 -29 5 -15 -2 -28 -23 -49 -49 -45 -56
-142 -11 -154 12 -3 18 -10 14 -16 -3 -6 -10 -9 -15 -6 -5 3 -7 -4 -5 -16 4
-18 0 -20 -20 -17 -17 4 -25 0 -29 -16 -7 -27 12 -50 30 -35 14 11 34 5 34
-11 0 -5 -8 -7 -17 -4 -15 5 -15 4 -3 -4 8 -6 17 -9 21 -6 4 2 10 0 14 -6 3
-5 -1 -10 -9 -10 -8 0 -17 -4 -20 -9 -8 -12 26 -9 40 4 8 7 7 13 -3 24 -13 12
-13 15 2 24 14 8 15 11 4 18 -10 6 -11 9 -1 9 6 0 12 5 12 10 0 7 -6 7 -20 0
-12 -6 -17 -16 -13 -26 5 -14 3 -14 -16 -2 -18 11 -23 11 -30 -1 -7 -10 -10
-10 -16 -1 -9 14 11 30 39 30 11 0 16 5 13 14 -6 14 10 36 26 36 5 0 4 -7 -3
-15 -11 -13 -10 -14 4 -9 9 4 18 0 22 -10 4 -10 14 -14 33 -10 31 7 89 -32 73
-48 -15 -15 -32 0 -25 20 7 19 4 17 -17 -13 -8 -11 -10 -17 -6 -13 5 5 16 -2
24 -13 12 -17 16 -18 23 -8 7 11 9 10 9 -4 0 -10 7 -20 15 -23 8 -4 12 -11 8
-17 -4 -6 -1 -7 7 -2 11 7 10 10 -1 19 -19 15 -21 56 -2 49 8 -3 12 -12 9 -20
-9 -23 60 -41 80 -20 4 4 -1 7 -11 7 -16 0 -127 87 -146 114 -4 4 -13 5 -20 1
-8 -5 -11 -5 -7 0 4 4 1 16 -6 27 -16 23 -11 88 11 131 16 31 82 66 126 67 29
0 37 17 12 26 -8 3 -22 -2 -32 -11 -15 -16 -18 -16 -29 -1 -9 13 -13 14 -23 3
-6 -8 -9 -16 -6 -19 3 -2 -13 -12 -34 -21 -48 -21 -66 -59 -56 -118 5 -30 3
-44 -6 -51 -11 -8 -11 -9 1 -6 23 7 40 -14 28 -35 -8 -16 -13 -14 -48 20 -28
28 -35 41 -28 50 6 7 14 10 19 7 14 -9 22 23 10 44 -8 15 -6 23 9 37 20 18 27
36 13 34 -20 -3 -34 2 -29 10 4 5 17 8 30 7 12 -2 31 3 41 11 22 15 20 16 -22
4 -28 -8 -31 -7 -30 11 2 24 28 40 48 27 12 -7 11 -9 -3 -9 -9 0 -20 -4 -23
-10 -4 -6 1 -7 12 -3 33 12 36 16 18 30 -21 15 -22 15 -53 2z m-17 -105 c-9
-10 -14 -25 -12 -35 3 -10 -1 -26 -9 -36 -11 -15 -14 -15 -14 -3 -1 10 -4 9
-10 -5 -7 -16 -9 -17 -9 -3 -1 9 3 19 9 23 5 3 7 12 3 20 -3 8 0 15 7 15 6 0
8 5 4 11 -7 12 12 29 34 29 10 0 9 -5 -3 -16z m42 -46 c-3 -8 -6 -5 -6 6 -1
11 2 17 5 13 3 -3 4 -12 1 -19z"/>
<path d="M1501 873 c-2 -20 16 -24 30 -5 13 15 12 16 -3 4 -13 -10 -17 -10
-21 0 -4 9 -6 9 -6 1z"/>
<path d="M1623 873 c20 -2 54 -2 75 0 20 2 3 4 -38 4 -41 0 -58 -2 -37 -4z"/>
<path d="M1782 860 c48 -20 88 -52 88 -70 0 -5 6 -10 13 -10 21 0 40 -45 35
-79 -3 -19 1 -36 9 -42 10 -9 13 -5 13 20 0 17 4 31 9 31 4 0 7 -10 6 -22 -1
-13 -3 -29 -4 -36 -1 -17 -85 -106 -143 -153 -33 -26 -43 -39 -33 -43 8 -3 19
3 24 12 6 9 11 12 11 5 0 -20 34 -24 76 -9 21 8 35 15 31 15 -4 1 3 16 17 34
13 17 29 46 35 62 l11 30 -21 -25 c-11 -14 -29 -35 -39 -47 -10 -12 -16 -24
-13 -27 4 -3 -3 -6 -15 -6 -12 0 -22 -4 -22 -10 0 -5 7 -6 17 -3 11 4 14 3 9
-6 -5 -8 -18 -10 -35 -7 -19 5 -22 4 -11 -4 13 -8 13 -10 -2 -10 -9 0 -19 3
-21 8 -6 9 28 53 36 46 3 -3 8 4 12 15 3 12 11 22 16 22 5 1 14 3 19 4 6 1 16
3 23 4 9 1 8 4 -2 10 -16 10 -6 31 15 31 8 0 12 5 9 10 -14 23 12 8 38 -21 31
-36 34 -64 10 -93 -17 -20 -17 -20 0 -7 26 20 29 9 7 -27 l-20 -32 -401 0
c-221 1 -403 -1 -406 -3 -2 -3 1 -14 8 -25 7 -11 9 -27 6 -36 -7 -18 -37 -22
-37 -5 0 5 5 7 10 4 6 -3 10 3 10 14 0 13 -7 21 -16 21 -21 0 -15 -35 16 -106
27 -61 22 -100 -15 -114 -29 -11 -70 4 -80 28 -5 15 15 72 26 72 12 0 31 -49
23 -61 -5 -9 -9 -8 -14 6 -4 11 -9 14 -13 8 -3 -5 0 -19 8 -29 13 -17 15 -18
30 -3 14 14 14 20 -10 70 -13 30 -25 66 -25 82 0 27 30 67 51 67 14 0 6 159
-9 169 -5 3 -14 16 -21 29 -7 12 -16 20 -22 17 -5 -4 -9 -1 -9 6 0 6 -9 1 -21
-12 -20 -24 -20 -24 -9 -1 9 19 7 26 -22 52 -52 48 -106 82 -117 75 -17 -10
-13 -25 7 -25 17 -1 62 -33 62 -45 0 -4 -6 -5 -13 -2 -8 3 -14 -3 -14 -15 -2
-19 -1 -19 17 -3 28 26 47 6 61 -63 6 -34 21 -69 36 -87 20 -24 23 -25 11 -5
-8 14 -14 38 -12 53 2 22 -1 27 -12 23 -11 -4 -11 -1 2 19 l16 24 25 -29 c28
-34 35 -59 21 -77 -6 -7 -5 -14 3 -19 8 -5 9 -3 4 6 -5 9 -4 11 3 6 14 -9 16
-46 2 -46 -5 0 -7 -7 -4 -15 4 -11 -1 -15 -17 -16 -22 0 -22 -1 -4 -8 18 -7
18 -9 -7 -25 -24 -16 -27 -23 -23 -64 3 -35 -1 -55 -18 -82 -11 -19 -25 -37
-29 -38 -4 -2 -8 -10 -8 -17 0 -7 -7 -16 -16 -19 -12 -4 -15 -2 -10 9 3 8 2
15 -2 15 -4 0 -13 -13 -19 -30 -12 -32 -40 -40 -49 -15 -4 8 1 27 11 41 9 14
14 35 12 46 -3 11 -1 31 4 45 8 22 12 23 25 12 12 -9 15 -24 11 -52 -6 -46 6
-45 35 3 12 19 15 29 8 23 -18 -17 -31 -16 -24 1 5 13 -19 45 -37 47 -5 1 -13
2 -18 3 -5 0 -13 4 -17 9 -13 13 -27 8 -16 -6 7 -8 9 -29 5 -52 -4 -27 -3 -36
5 -31 7 4 12 2 12 -4 0 -19 -31 -23 -47 -7 -13 13 -14 23 -5 58 6 24 8 47 5
52 -3 4 -7 22 -10 39 -5 35 -33 71 -33 44 0 -9 -6 -16 -13 -16 -24 0 -70 -57
-63 -77 6 -15 9 -14 20 12 17 38 41 59 62 51 14 -6 15 -19 9 -112 -5 -77 -4
-105 4 -100 6 4 11 2 11 -4 0 -6 -12 -10 -27 -8 -34 4 -42 34 -33 130 3 36 2
64 -2 62 -12 -8 -28 -68 -25 -99 1 -21 -2 -30 -13 -30 -11 0 -15 12 -15 45 -1
79 -20 87 -21 9 -2 -90 -10 -116 -35 -124 -28 -9 -48 11 -55 56 -4 22 -11 39
-16 39 -5 0 -4 8 1 18 7 13 6 23 -2 31 -17 17 -53 132 -49 159 2 14 10 22 23
22 23 0 24 -9 3 -38 -13 -19 -13 -22 0 -22 8 0 17 13 21 30 4 16 11 30 16 30
6 0 7 5 3 12 -5 7 -2 9 9 5 8 -3 21 1 28 9 19 23 5 26 -32 7 -48 -24 -59 -24
-59 0 0 11 3 18 6 14 4 -3 15 4 25 16 10 12 18 18 19 12 0 -5 7 1 16 13 8 12
12 27 9 32 -3 6 -4 10 -1 10 3 0 12 -14 19 -32 11 -26 14 -29 20 -15 4 11 -3
27 -22 46 -28 28 -29 28 -45 10 -9 -11 -16 -25 -16 -32 0 -6 -7 -21 -16 -32
-13 -17 -16 -18 -25 -5 -8 11 -9 6 -5 -19 3 -19 2 -39 -3 -45 -11 -13 -19 -96
-10 -96 11 0 18 -40 8 -46 -5 -3 -9 -10 -9 -17 0 -8 3 -8 11 0 9 9 17 6 30
-12 24 -29 24 -34 -1 -32 -13 1 -19 6 -15 15 2 7 0 10 -5 7 -14 -9 -12 -24 4
-41 11 -11 16 -11 20 -1 3 6 2 -1 -1 -17 -4 -20 -3 -27 6 -22 6 4 11 4 12 -1
0 -4 2 -24 3 -43 3 -34 3 -35 -8 -8 -6 15 -25 41 -41 59 -17 18 -37 44 -46 57
-11 15 -19 20 -23 13 -4 -6 -2 -11 4 -11 6 0 8 -4 5 -10 -3 -5 -2 -10 4 -10
18 0 22 -37 6 -66 -19 -37 -37 -37 -52 1 -6 16 -12 24 -12 17 -1 -9 -5 -10
-20 0 -11 6 -17 19 -14 27 4 13 3 13 -5 2 -12 -17 -32 -6 -32 17 0 15 -2 15
-10 2 -8 -13 -13 -11 -33 10 -14 15 -23 37 -23 53 1 15 -2 33 -7 40 -6 9 -7 8
-6 -3 1 -8 -1 -23 -5 -32 -7 -16 12 -55 41 -86 11 -11 10 -18 -2 -35 -20 -29
-19 -37 5 -37 17 0 19 4 14 26 -7 25 -5 27 22 20 16 -4 40 -18 54 -31 37 -34
124 -75 140 -65 10 6 8 11 -9 19 -11 7 -21 21 -21 31 0 11 -5 20 -12 20 -9 0
-9 3 0 12 9 9 16 7 32 -7 11 -10 20 -24 20 -31 0 -17 34 -36 53 -29 17 7 41
-20 32 -35 -3 -6 -11 -8 -16 -5 -16 11 -49 14 -49 5 0 -11 29 -21 41 -14 5 3
9 -4 9 -15 0 -20 2 -21 72 -21 16 0 28 -4 28 -10 0 -7 6 -7 20 0 15 8 19 17
14 38 -4 21 -3 24 5 12 9 -13 11 -13 11 3 0 9 -6 17 -14 17 -17 0 -29 -27 -15
-35 5 -4 7 -11 3 -16 -8 -14 -24 0 -24 21 0 13 -5 17 -14 14 -8 -3 -12 -12 -9
-20 3 -8 0 -14 -6 -14 -6 0 -10 3 -10 8 3 19 -3 22 -21 12 -16 -9 -20 -8 -20
5 0 8 5 15 11 15 5 0 7 5 4 10 -4 7 2 9 19 4 16 -4 26 -2 26 5 0 6 -3 10 -7
10 -25 -4 -23 4 7 31 31 27 69 42 56 22 -9 -16 25 -52 48 -52 27 0 53 25 36
35 -5 3 -10 14 -10 23 0 31 27 -10 33 -51 5 -31 3 -38 -8 -33 -8 3 -15 1 -15
-4 0 -14 23 -12 39 3 8 6 11 7 8 2 -3 -6 3 -17 15 -24 18 -11 19 -10 13 8 -6
20 -2 21 54 21 56 0 81 -13 48 -26 -7 -2 -14 -19 -15 -37 -2 -20 -12 -40 -28
-54 -24 -20 -24 -22 -5 -20 12 1 21 7 21 14 0 7 7 10 18 7 13 -4 14 -3 4 4
-11 7 -8 11 10 15 33 9 47 7 23 -3 -17 -8 -17 -9 7 -7 15 1 24 5 22 9 -3 4 0
8 5 8 6 0 11 -3 11 -7 0 -5 12 -16 26 -26 13 -10 24 -15 23 -10 -4 22 3 24 26
9 28 -19 45 -14 45 13 0 10 15 39 34 65 38 53 32 55 90 -19 l24 -30 32 24 33
24 -7 -47 c-7 -47 -3 -53 24 -36 10 6 11 10 3 10 -9 0 -10 7 -4 23 5 13 5 30
1 37 -5 8 -7 17 -4 21 2 4 -3 10 -12 13 -8 3 -13 2 -10 -3 11 -16 -48 -30 -68
-16 -13 10 -14 14 -4 18 8 4 4 8 -10 13 -18 5 -20 9 -10 15 9 6 8 9 -7 9 -11
0 -30 7 -43 15 -20 14 -21 14 -16 0 8 -19 -13 -46 -31 -39 -8 3 -19 -12 -31
-45 -11 -32 -22 -47 -28 -42 -24 17 -97 33 -125 28 -23 -5 -31 -3 -31 8 0 8 4
15 9 15 5 0 12 11 15 25 6 25 8 25 107 25 90 0 100 2 97 17 -2 10 -13 19 -26
21 -28 4 -28 18 -1 32 17 9 23 8 33 -6 10 -13 20 -15 42 -9 16 4 41 7 56 6 14
-1 29 3 33 9 5 7 13 4 24 -9 16 -18 20 -19 44 -6 26 13 27 13 23 -11 -3 -14
-1 -22 5 -19 5 4 9 13 9 21 0 8 10 14 26 14 37 0 64 18 64 43 0 21 -1 20 -23
-7 -27 -33 -52 -31 -66 6 l-8 23 -7 -23 c-4 -12 -16 -27 -26 -32 -25 -13 -53
14 -47 46 2 13 0 21 -4 18 -5 -3 -9 -11 -9 -18 0 -18 -37 -49 -49 -41 -6 3
-11 22 -11 41 0 19 -5 34 -11 34 -8 0 -7 5 1 15 20 24 34 12 40 -31 l5 -39 23
38 c24 42 27 51 12 42 -5 -3 -23 1 -40 10 -26 14 -31 21 -28 48 l3 32 160 0
c175 1 201 -4 185 -35 -6 -11 -7 -20 -3 -20 4 0 0 -5 -9 -11 -12 -7 -24 -6
-39 1 -22 12 -37 5 -71 -35 -17 -20 -17 -19 -18 18 0 26 -5 40 -17 44 -9 4
-19 1 -21 -5 -5 -17 -22 -15 -43 4 -21 19 -55 11 -70 -18 -6 -11 -9 -22 -6
-24 6 -6 34 21 40 38 3 9 11 6 26 -9 18 -19 19 -23 5 -31 -11 -6 -14 -21 -12
-58 l3 -49 28 52 c32 62 54 62 59 0 l3 -41 32 52 c21 34 39 52 52 52 22 0 37
-17 26 -28 -4 -4 -10 -1 -12 6 -8 21 -23 2 -23 -29 0 -28 15 -40 22 -17 4 12
38 21 38 9 0 -13 -44 -49 -65 -53 -17 -3 -17 -5 -4 -10 26 -10 79 32 78 62 0
41 20 124 35 138 17 17 36 8 35 -16 0 -14 -2 -14 -8 2 -7 19 -8 19 -13 -2 -4
-12 -2 -20 3 -16 13 8 11 -10 -2 -23 -6 -6 -10 -16 -8 -22 3 -7 22 7 44 31 22
23 30 34 18 24 -23 -19 -23 -19 -23 2 0 21 3 22 68 16 37 -3 69 -8 71 -10 2
-2 11 2 20 9 9 8 24 17 34 20 15 6 16 3 7 -13 -7 -12 -7 -21 0 -25 5 -3 10
-18 10 -33 l1 -27 34 39 c19 22 38 36 42 33 4 -4 -9 -23 -27 -42 -25 -26 -30
-35 -17 -35 22 0 34 -26 36 -78 0 -24 3 -48 6 -52 3 -5 1 -11 -4 -15 -15 -8
-38 34 -46 82 -8 51 -25 67 -25 23 0 -40 -25 -99 -45 -106 -8 -4 -22 -1 -30 6
-15 13 -12 30 6 30 6 0 7 -4 4 -10 -3 -5 -1 -10 4 -10 7 0 11 27 11 67 l0 67
-28 -34 c-22 -26 -28 -42 -26 -71 2 -29 -1 -37 -12 -32 -8 3 -14 -1 -14 -9 0
-12 -17 -15 -92 -13 -51 1 -103 5 -115 9 -12 4 -24 2 -28 -4 -3 -5 -17 -10
-31 -10 -14 0 -23 4 -19 9 3 5 1 13 -5 16 -12 8 -65 -23 -56 -33 4 -3 12 0 18
6 17 17 24 15 24 -7 0 -11 -4 -17 -9 -14 -4 3 -16 -2 -25 -11 -12 -10 -22 -12
-32 -6 -8 5 -19 10 -25 10 -22 -1 31 -24 57 -25 24 -2 26 1 16 14 -7 9 -3 8 8
-3 13 -12 15 -20 7 -23 -7 -2 -9 -11 -7 -18 3 -8 2 -20 -2 -27 -11 -18 -12
-48 -2 -48 13 0 27 44 30 95 l3 46 168 -2 c92 0 165 -4 162 -9 -12 -19 27 -33
80 -27 30 3 57 2 59 -2 3 -4 -2 -21 -11 -39 -12 -26 -13 -35 -3 -47 7 -8 20
-15 28 -15 13 0 12 3 -4 15 -19 15 -19 15 1 8 17 -6 18 -4 8 9 -7 8 -9 18 -5
22 4 4 7 11 8 14 0 4 4 15 9 25 4 11 3 23 -4 30 -16 16 -14 47 4 53 8 4 13 9
10 13 -2 4 10 8 26 8 17 0 35 6 39 13 7 11 14 12 35 2 15 -7 31 -10 36 -7 5 4
19 -1 31 -9 29 -21 54 -20 62 0 4 11 14 15 31 12 14 -3 25 -1 25 3 0 5 6 9 13
9 7 0 19 9 27 20 18 25 29 25 46 3 10 -14 15 -15 25 -6 9 9 6 15 -17 25 -16 7
-32 16 -35 21 -3 4 -13 -3 -22 -17 -10 -14 -27 -31 -39 -37 -18 -10 -24 -8
-39 10 -23 28 -29 27 -29 -10 0 -24 -4 -30 -17 -27 -14 3 -17 12 -14 43 l3 39
-27 -32 c-31 -37 -58 -41 -78 -12 -14 20 -14 19 -26 -6 -15 -33 -53 -30 -61 6
-9 38 0 71 19 68 12 -3 15 -13 13 -41 -2 -20 0 -37 5 -37 4 0 20 23 35 50 22
40 33 50 54 50 31 0 28 23 -4 28 -15 2 -26 -6 -39 -30 l-18 -33 -3 27 c-3 28
-38 62 -54 52 -5 -3 -7 0 -6 6 2 7 -5 17 -15 23 -15 10 -21 8 -32 -7 -17 -22
-50 -14 -41 10 3 9 3 21 -1 27 -17 27 -11 41 8 18 11 -13 23 -21 26 -17 4 4 3
10 -2 14 -15 11 -17 42 -3 42 9 0 9 3 -2 10 -12 7 -11 12 5 32 19 21 19 22 1
8 -18 -14 -18 -13 -12 10 5 18 5 21 -3 10 -5 -8 -13 -11 -17 -7 -8 7 14 37 27
37 5 0 9 -8 9 -17 0 -15 2 -16 10 -3 6 9 5 17 -3 22 -9 6 -9 8 1 8 6 0 11 3
11 8 -5 29 10 36 38 19 8 -5 11 -3 8 5 -4 9 5 13 28 13 20 0 34 -5 34 -12 0
-7 -4 -10 -8 -8 -4 3 -5 -5 -1 -17 3 -14 1 -19 -6 -14 -6 3 -14 1 -18 -5 -4
-8 -3 -9 4 -5 18 11 14 -5 -5 -27 -10 -11 -12 -17 -5 -13 7 4 12 1 12 -9 0 -9
-4 -14 -8 -11 -5 3 -6 -9 -3 -27 5 -31 6 -31 15 16 5 26 13 47 18 47 4 0 8 8
8 19 0 32 21 81 33 74 5 -3 8 -2 5 3 -4 5 -40 8 -81 6 -73 -3 -76 -4 -82 -31
-4 -18 -16 -31 -35 -38 -31 -12 -40 -3 -40 38 0 17 -3 18 -20 9 -26 -14 -27 3
0 30 10 10 15 22 10 25 -4 3 -11 -1 -13 -7 -4 -10 -6 -10 -6 0 -1 8 8 16 19
19 11 3 17 9 14 14 -8 13 10 11 23 -2 9 -9 10 -6 6 10 -4 17 -1 24 16 28 11 3
21 11 21 19 0 7 10 19 23 25 12 7 28 19 35 28 8 9 11 11 8 6 -2 -6 9 -12 27
-13 17 -2 28 0 25 4 -4 3 -3 16 2 28 6 17 5 23 -6 23 -9 0 -12 -7 -8 -19 4
-13 0 -18 -15 -18 -23 0 -29 25 -8 33 6 3 1 6 -12 6 -17 1 -22 -3 -17 -14 6
-17 -19 -21 -29 -5 -3 6 -1 10 6 10 7 0 10 3 7 6 -11 10 -48 -20 -48 -39 0
-25 -49 -85 -83 -103 -16 -9 -30 -14 -31 -12 -30 47 -43 67 -52 83 -6 11 -16
19 -23 17 -7 -1 -10 2 -6 7 9 15 -35 38 -85 45 l-45 6 47 -20z m318 -29 c0 -6
-4 -13 -10 -16 -5 -3 -10 1 -10 9 0 9 5 16 10 16 6 0 10 -4 10 -9z m-1410
-219 c0 -4 -13 -16 -28 -26 l-27 -20 19 22 c11 12 16 22 12 22 -4 0 -4 5 -1
10 7 11 25 4 25 -8z m616 -237 c-2 -20 -9 -31 -20 -33 -10 -2 -16 0 -13 5 3 5
-3 9 -14 9 -10 0 -19 -4 -19 -9 0 -12 -26 -37 -39 -37 -14 0 -14 23 -1 36 5 5
11 22 12 37 2 26 5 28 49 25 46 -3 47 -4 45 -33z m70 -2 c-4 -21 -9 -65 -11
-97 -3 -33 -9 -64 -14 -69 -17 -17 -33 5 -29 38 l4 33 -28 -30 c-39 -42 -72
-36 -76 15 -2 21 2 45 9 53 15 18 51 14 57 -6 4 -12 3 -13 -10 -2 -13 10 -17
10 -22 -4 -9 -23 -7 -52 3 -58 16 -10 63 47 58 71 -2 13 0 23 4 23 5 0 9 13 9
28 0 34 6 42 33 42 17 0 18 -5 13 -37z m214 -34 c0 -5 -7 -9 -15 -9 -15 0 -20
12 -9 23 8 8 24 -1 24 -14z m570 1 c0 -5 -9 -10 -20 -10 -11 0 -20 5 -20 10 0
6 9 10 20 10 11 0 20 -4 20 -10z m-50 -26 c0 -8 -4 -12 -10 -9 -5 3 -10 13
-10 21 0 8 5 12 10 9 6 -3 10 -13 10 -21z m-160 -64 c-11 -7 -11 -10 -2 -10 7
0 10 -5 6 -11 -4 -8 -9 -7 -15 2 -9 15 -3 29 14 29 7 0 6 -4 -3 -10z m-1162
-35 c-3 -3 -9 2 -12 12 -6 14 -5 15 5 6 7 -7 10 -15 7 -18z m462 -32 c0 -6 6
-14 13 -16 6 -3 -9 -6 -35 -6 l-47 -1 16 29 c14 24 20 27 35 17 10 -6 18 -16
18 -23z m820 -14 c10 -17 -6 -22 -49 -13 -22 5 -22 6 -7 23 9 10 16 24 16 32
1 14 21 -7 40 -42z m-978 0 c-4 -4 -24 -9 -45 -12 l-39 -6 32 30 c30 29 32 30
45 12 8 -10 11 -21 7 -24z m208 -9 c0 -5 -4 -10 -10 -10 -5 0 -10 5 -10 10 0
6 5 10 10 10 6 0 10 -4 10 -10z m800 -35 c7 -9 10 -18 6 -22 -3 -3 -6 -1 -6 5
0 17 -34 24 -64 13 -14 -6 -26 -7 -26 -2 0 5 -8 7 -19 4 -10 -3 -22 0 -25 6
-12 18 119 14 134 -4z"/>
<path d="M1362 375 c0 -16 2 -22 5 -12 2 9 2 23 0 30 -3 6 -5 -1 -5 -18z"/>
<path d="M2030 871 c0 -5 -12 -11 -27 -13 -22 -2 -28 -8 -28 -28 0 -20 6 -26
26 -28 21 -2 28 2 33 22 3 13 9 31 12 40 3 9 1 16 -5 16 -6 0 -11 -4 -11 -9z"/>
<path d="M2210 870 c0 -10 5 -12 33 -14 6 -1 15 -5 19 -11 5 -6 8 -3 8 6 0 23
-11 30 -27 18 -9 -9 -13 -8 -13 0 0 6 -4 11 -10 11 -5 0 -10 -4 -10 -10z"/>
<path d="M2400 868 c0 -9 3 -18 8 -21 4 -2 1 -2 -5 -1 -23 6 -14 -14 10 -20
20 -6 20 -7 5 -17 -12 -7 -24 -6 -39 1 -11 7 -23 9 -27 6 -3 -3 0 -6 7 -6 7 0
9 -4 6 -10 -3 -5 -13 -10 -21 -10 -8 0 -12 5 -9 10 3 6 -2 10 -12 10 -16 -1
-16 -3 4 -19 18 -15 30 -17 72 -10 83 13 87 19 41 64 -27 27 -40 34 -40 23z"/>
<path d="M709 863 c-6 -40 -7 -64 -2 -60 3 4 14 2 24 -3 12 -7 20 -7 24 0 10
16 25 12 25 -7 0 -14 2 -15 13 -4 10 10 8 15 -8 24 -11 6 -31 12 -45 12 -20 0
-25 5 -23 23 3 20 -5 33 -8 15z"/>
<path d="M2358 852 c9 -10 19 -17 21 -16 6 5 -20 34 -30 34 -5 0 -1 -8 9 -18z"/>
<path d="M770 849 c0 -5 5 -7 10 -4 6 3 10 8 10 11 0 2 -4 4 -10 4 -5 0 -10
-5 -10 -11z"/>
<path d="M821 824 c0 -11 3 -14 6 -6 3 7 2 16 -1 19 -3 4 -6 -2 -5 -13z"/>
<path d="M920 831 c0 -6 4 -12 8 -15 5 -3 9 1 9 9 0 8 -4 15 -9 15 -4 0 -8 -4
-8 -9z"/>
<path d="M1143 828 c-5 -7 -15 -25 -23 -40 -7 -16 -17 -28 -22 -28 -4 0 -8
-12 -8 -26 0 -14 -4 -23 -9 -19 -5 3 -13 0 -17 -6 -5 -9 0 -10 14 -7 20 6 27
-2 23 -25 -1 -5 3 -6 9 -2 7 4 7 12 0 25 -7 13 -6 19 4 23 18 7 36 -12 36 -37
0 -16 3 -17 9 -8 13 21 21 -21 8 -44 -9 -17 -9 -18 7 -5 14 12 19 12 29 1 9
-9 9 -11 0 -6 -6 3 -15 1 -19 -5 -5 -8 -3 -9 6 -4 10 6 12 2 7 -16 -6 -23 -5
-23 8 -5 8 11 15 23 15 28 0 4 5 8 11 8 5 0 8 -4 4 -9 -3 -6 4 -15 15 -21 12
-6 20 -7 20 -1 0 16 -30 41 -51 41 -14 0 -19 7 -19 28 0 32 -21 55 -63 71 -16
6 -25 16 -22 21 4 6 10 8 15 5 5 -3 12 7 16 22 4 15 11 34 17 41 6 8 6 12 -1
12 -5 0 -14 -6 -19 -12z"/>
<path d="M1643 823 c-12 -2 -27 -11 -33 -18 -9 -11 -17 -12 -31 -4 -15 7 -19
6 -19 -6 0 -8 -4 -15 -8 -15 -12 0 -12 -39 0 -46 11 -7 -32 -33 -44 -27 -4 2
-3 15 2 29 6 14 10 33 10 42 -1 14 -2 14 -12 -3 -6 -11 -17 -26 -26 -32 -14
-11 -14 -14 0 -30 10 -11 14 -28 12 -43 -8 -37 50 -99 100 -107 21 -3 40 -11
42 -18 8 -19 93 -19 115 1 11 9 19 14 19 10 0 -4 7 0 16 9 9 8 14 21 11 28 -3
8 3 13 14 13 24 0 24 -3 0 -42 -12 -19 -41 -42 -73 -57 -42 -21 -48 -26 -28
-27 l25 -1 -27 -15 c-35 -19 -36 -27 -2 -14 14 6 30 7 36 4 6 -4 8 -2 5 3 -4
6 9 23 28 38 20 14 47 44 60 66 27 42 71 166 63 175 -3 3 -15 5 -27 5 -11 -1
-30 -1 -41 -2 -12 0 -18 -5 -14 -11 11 -17 10 -52 -1 -60 -6 -5 -3 -8 8 -8 9
0 17 -7 17 -15 0 -14 -10 -18 -27 -13 -5 2 -7 6 -6 10 2 4 -5 4 -14 1 -9 -4
-12 -8 -6 -10 17 -6 -8 -49 -38 -67 -15 -9 -44 -16 -64 -16 -32 0 -36 2 -25
15 7 8 9 15 4 15 -5 0 0 6 10 12 15 9 22 7 32 -6 19 -26 48 -6 63 43 6 23 16
41 21 41 5 0 8 14 8 30 -1 34 -3 35 -40 16 -16 -8 -28 -11 -28 -5 0 5 -11 9
-24 9 -14 0 -28 5 -31 10 -8 13 -25 13 -25 0 0 -21 -24 -36 -52 -32 -16 2 -28
0 -28 -7 0 -6 -7 -8 -15 -5 -9 4 -15 0 -15 -9 0 -9 12 -18 28 -22 36 -8 72
-36 55 -42 -7 -3 -13 -10 -13 -16 0 -5 3 -7 6 -4 10 9 46 -12 39 -23 -4 -6
-18 -4 -36 5 -16 9 -29 12 -29 8 0 -5 -5 0 -11 10 -5 9 -17 17 -26 17 -9 0
-13 6 -10 14 4 10 1 13 -9 9 -10 -4 -12 0 -7 13 4 12 3 15 -5 10 -7 -4 -12 -3
-12 1 0 14 31 53 42 53 15 0 49 41 42 51 -3 5 -7 9 -10 9 -3 0 -3 -4 0 -9 3
-5 -1 -14 -9 -21 -11 -9 -14 -8 -12 9 1 12 6 22 12 23 5 0 15 2 20 2 6 1 19 7
31 13 16 9 24 9 33 0 10 -9 11 -8 6 4 -4 10 0 19 10 23 11 4 14 2 9 -6 -5 -8
-2 -9 9 -5 10 3 17 2 17 -4 0 -6 4 -8 8 -5 5 3 19 -1 33 -8 13 -7 30 -11 36
-9 6 2 10 -4 9 -14 -2 -10 -1 -12 1 -5 4 11 9 10 24 -4 13 -11 19 -13 19 -5 0
7 -13 26 -30 41 -29 27 -30 27 -31 7 0 -12 -3 -16 -6 -9 -6 15 -68 43 -92 41
-9 -1 -26 -4 -38 -6z m75 -131 c2 -7 -1 -12 -8 -12 -6 0 -8 5 -5 10 3 6 -2 10
-12 10 -16 0 -16 -1 -1 -16 15 -15 18 -15 44 5 21 16 30 19 41 10 11 -10 11
-14 -1 -28 -7 -9 -17 -27 -21 -41 -12 -39 -25 -52 -41 -39 -16 13 -19 49 -5
49 17 0 24 -22 10 -31 -9 -6 -10 -9 -2 -9 21 0 25 21 7 41 -18 20 -40 27 -29
9 3 -5 -1 -10 -9 -10 -10 0 -13 6 -10 18 5 16 4 15 -9 -1 -14 -16 -20 -17 -56
-6 -44 13 -51 36 -10 31 15 -2 32 5 43 17 13 14 24 17 43 12 15 -4 28 -12 31
-19z m158 15 c4 -4 2 -7 -5 -7 -7 0 -10 -4 -7 -9 3 -5 0 -11 -8 -14 -9 -4 -16
3 -18 17 -3 17 0 22 14 21 9 -1 21 -4 24 -8z m-196 -87 c-20 -13 -40 -13 -40
0 0 6 12 10 28 10 21 0 24 -2 12 -10z"/>
<path d="M2244 814 c-18 -14 -18 -14 4 -4 20 10 26 7 24 -11 -1 -3 6 -6 14 -6
19 0 18 10 -5 24 -15 9 -23 9 -37 -3z"/>
<path d="M982 795 c0 -16 2 -22 5 -12 2 9 2 23 0 30 -3 6 -5 -1 -5 -18z"/>
<path d="M676 793 c-6 -14 -5 -15 5 -6 7 7 10 15 7 18 -3 3 -9 -2 -12 -12z"/>
<path d="M930 790 c0 -5 5 -10 11 -10 5 0 7 5 4 10 -3 6 -8 10 -11 10 -2 0 -4
-4 -4 -10z"/>
<path d="M2098 793 c-28 -7 -21 -21 7 -15 14 2 22 8 19 13 -3 5 -6 8 -7 8 -1
-1 -10 -3 -19 -6z"/>
<path d="M2140 791 c0 -6 5 -13 10 -16 6 -3 10 1 10 9 0 9 -4 16 -10 16 -5 0
-10 -4 -10 -9z"/>
<path d="M866 774 c-9 -24 2 -36 24 -24 11 6 17 17 14 25 -8 20 -30 19 -38 -1z"/>
<path d="M2176 779 c4 -7 44 0 44 7 0 2 -11 3 -24 2 -14 -1 -23 -5 -20 -9z"/>
<path d="M820 769 c0 -5 -4 -7 -10 -4 -5 3 -20 -1 -33 -10 -13 -8 -26 -12 -30
-9 -3 3 -11 -3 -18 -15 -10 -15 -16 -17 -27 -9 -10 9 -12 8 -10 -3 2 -8 -3
-13 -11 -11 -11 2 -12 0 -3 -11 7 -8 8 -18 4 -22 -12 -14 21 7 60 37 21 16 50
30 65 31 37 3 63 37 28 37 -8 0 -15 -5 -15 -11z m-70 -39 c0 -5 -5 -10 -11
-10 -5 0 -7 5 -4 10 3 6 8 10 11 10 2 0 4 -4 4 -10z m-40 -30 c0 -5 -5 -10
-11 -10 -5 0 -7 5 -4 10 3 6 8 10 11 10 2 0 4 -4 4 -10z"/>
<path d="M710 760 c-9 -6 -10 -10 -3 -10 6 0 15 5 18 10 8 12 4 12 -15 0z"/>
<path d="M2240 760 c-28 -4 -31 -7 -14 -11 12 -4 39 -3 60 0 33 6 35 8 14 12
-14 2 -41 2 -60 -1z"/>
<path d="M2335 762 c-10 -10 -4 -18 27 -36 28 -17 31 -17 25 -3 -8 21 0 22 20
1 10 -10 19 -12 26 -5 6 6 17 5 31 -4 11 -8 24 -14 28 -15 15 -1 78 -34 78
-40 0 -4 14 -22 31 -41 18 -19 28 -27 24 -19 -8 13 -6 13 8 1 9 -7 23 -11 31
-8 16 6 56 -19 56 -36 0 -8 -3 -8 -12 1 -7 7 -17 12 -22 12 -6 0 -3 -5 7 -11
9 -5 17 -15 17 -21 0 -6 -12 -2 -27 8 -24 15 -26 15 -14 1 16 -20 2 -23 -19
-4 -12 10 -12 9 -2 -4 6 -9 9 -19 5 -23 -4 -4 0 -4 8 -1 10 4 20 -2 27 -17 7
-15 11 -18 11 -7 1 8 -5 21 -11 28 -11 11 -10 13 4 8 11 -4 21 0 27 11 11 20
21 13 24 -16 0 -11 4 -19 8 -16 4 2 10 0 14 -6 3 -5 -3 -10 -14 -10 -12 0 -20
-6 -19 -12 2 -8 -6 -12 -19 -11 -25 3 -31 -12 -9 -20 8 -3 22 3 32 14 20 22
29 17 29 -14 0 -17 9 -24 40 -32 43 -10 79 -35 51 -35 -8 0 -13 -6 -11 -13 3
-6 -4 -18 -15 -25 -12 -7 -20 -8 -20 -2 0 5 4 10 9 10 5 0 9 11 9 25 0 14 -4
25 -8 25 -11 0 -20 -27 -20 -56 0 -14 -4 -22 -10 -19 -6 3 -7 -1 -4 -9 3 -9 1
-16 -5 -16 -6 0 -11 -7 -11 -15 0 -8 -7 -15 -15 -15 -14 0 -14 3 0 24 11 16
13 26 6 31 -15 9 -14 28 2 19 7 -4 9 -3 4 2 -5 5 -12 9 -15 9 -4 0 -13 4 -21
9 -8 5 -7 -1 4 -18 18 -26 9 -36 -13 -14 -9 9 -12 8 -12 -5 0 -9 3 -16 8 -16
18 3 32 -2 32 -12 0 -6 -7 -8 -16 -5 -12 5 -15 2 -10 -10 3 -8 6 -18 6 -20 0
-2 7 -4 15 -4 11 0 12 -5 5 -25 -7 -19 -6 -26 6 -33 14 -8 12 -13 -10 -38 -23
-27 -25 -27 -23 -7 0 12 5 19 9 17 4 -3 8 4 8 15 0 32 -28 25 -35 -9 -9 -40
-4 -122 8 -137 5 -7 15 -13 21 -13 6 0 4 5 -4 10 -13 8 -13 11 -1 22 8 7 11 8
8 2 -4 -7 0 -15 8 -18 13 -4 14 -2 5 14 -6 11 -14 20 -18 20 -18 0 -9 42 14
67 13 14 25 24 27 22 11 -15 30 -66 28 -73 -1 -5 4 -13 11 -17 11 -7 11 -9 0
-9 -10 0 -9 -4 3 -16 9 -9 13 -24 10 -35 -4 -13 -2 -19 9 -19 9 0 16 8 16 18
0 29 -36 126 -64 175 -14 24 -23 47 -19 50 3 4 22 8 42 8 l36 2 -35 6 -35 7
54 49 c56 52 81 91 81 123 0 18 -4 19 -37 11 -60 -15 -110 -20 -95 -10 11 6
11 17 2 50 -14 54 -71 116 -118 132 -20 6 -54 27 -76 47 -21 19 -63 45 -92 59
-52 24 -149 45 -159 35z m555 -346 c0 -2 -7 -6 -15 -10 -8 -3 -15 -1 -15 4 0
6 7 10 15 10 8 0 15 -2 15 -4z"/>
<path d="M1686 748 c3 -5 10 -6 15 -3 13 9 11 12 -6 12 -8 0 -12 -4 -9 -9z"/>
<path d="M655 730 c-10 -11 -15 -20 -12 -20 4 0 16 9 27 20 11 11 16 20 12 20
-5 0 -17 -9 -27 -20z"/>
<path d="M2173 729 c9 -6 15 -14 12 -20 -3 -5 1 -6 10 -3 14 6 14 8 -2 20 -10
7 -22 13 -28 13 -5 0 -2 -4 8 -10z"/>
<path d="M435 715 c-3 -8 -7 -22 -10 -30 -2 -8 -1 -15 4 -15 5 0 11 14 13 30
5 32 1 40 -7 15z"/>
<path d="M461 718 c0 -9 -4 -25 -7 -35 -5 -17 -5 -17 6 0 6 10 9 25 7 35 -4
15 -5 15 -6 0z"/>
<path d="M603 711 c0 -11 5 -18 9 -15 4 3 5 11 1 19 -7 21 -12 19 -10 -4z"/>
<path d="M898 724 c-4 -3 -23 -6 -42 -6 -20 0 -36 -4 -36 -9 0 -5 -3 -8 -7 -8
-24 4 -43 -3 -43 -15 0 -9 -7 -12 -20 -9 -14 4 -20 0 -20 -10 0 -13 5 -14 31
-5 17 6 33 16 36 23 3 9 19 12 49 9 32 -2 43 0 38 8 -4 7 -3 8 4 4 16 -10 3
-36 -14 -29 -16 6 -45 -14 -43 -31 3 -26 -2 -37 -13 -30 -7 4 -24 9 -39 11
-22 2 -27 -1 -26 -17 1 -23 2 -23 26 -11 23 13 61 3 61 -16 0 -10 -6 -13 -17
-8 -10 3 -20 7 -23 7 -12 1 -70 -27 -70 -34 0 -10 51 -5 69 7 9 5 12 4 8 -1
-8 -14 9 -38 22 -30 6 4 11 14 11 23 0 12 3 13 14 4 10 -8 16 -9 21 -1 3 5 0
13 -9 16 -8 3 -15 18 -15 32 0 15 -2 36 -3 47 -2 12 4 21 14 23 13 3 16 -2 12
-25 -3 -21 2 -15 21 22 13 27 21 53 17 57 -5 5 -11 6 -14 2z"/>
<path d="M405 710 c-3 -5 -1 -10 4 -10 6 0 11 5 11 10 0 6 -2 10 -4 10 -3 0
-8 -4 -11 -10z"/>
<path d="M2064 705 c8 -7 12 -16 8 -20 -4 -5 -2 -5 5 -1 16 9 6 33 -14 33 -14
0 -14 -1 1 -12z"/>
<path d="M931 694 c0 -11 3 -14 6 -6 3 7 2 16 -1 19 -3 4 -6 -2 -5 -13z"/>
<path d="M2391 685 c-18 -6 -29 -14 -24 -18 4 -5 0 -5 -10 -1 -9 3 -17 2 -17
-4 0 -8 84 -10 131 -3 3 1 6 7 6 15 0 19 -46 25 -86 11z m69 -14 c0 -9 -57 -7
-67 3 -4 3 10 6 30 6 21 0 37 -4 37 -9z"/>
<path d="M2490 689 c0 -19 2 -24 11 -21 5 1 12 -5 15 -13 3 -8 10 -12 15 -9 5
3 10 0 10 -5 3 -26 4 -30 12 -37 4 -4 7 -2 7 5 0 7 5 9 10 6 7 -5 8 -11 1 -19
-6 -7 -6 -17 -1 -26 8 -13 10 -12 10 3 0 9 5 17 12 17 6 0 8 -3 5 -6 -3 -4 -2
-15 3 -25 7 -12 6 -19 -1 -21 -7 -2 -5 -8 4 -17 14 -11 15 -8 12 22 -3 33 -30
87 -44 87 -3 0 -23 16 -43 35 -21 18 -38 30 -38 24z"/>
<path d="M2295 679 c-4 -6 -5 -12 -2 -15 2 -3 7 2 10 11 7 17 1 20 -8 4z"/>
<path d="M575 670 c-3 -5 -1 -10 4 -10 6 0 11 5 11 10 0 6 -2 10 -4 10 -3 0
-8 -4 -11 -10z"/>
<path d="M530 641 c0 -17 -5 -31 -11 -31 -6 0 -9 -7 -6 -15 4 -8 2 -17 -2 -20
-5 -3 -12 2 -15 11 -3 8 -10 13 -15 10 -4 -3 -16 3 -26 14 -19 21 -39 27 -33
9 2 -6 7 -10 11 -9 5 0 17 -9 27 -22 14 -17 20 -19 20 -8 0 12 3 12 11 -2 12
-22 39 -12 39 14 0 10 4 17 8 14 5 -3 9 8 10 24 0 16 -4 32 -9 35 -5 4 -9 -8
-9 -24z"/>
<path d="M2020 650 c6 -11 13 -20 15 -20 3 0 5 9 5 20 0 11 -7 20 -15 20 -13
0 -14 -4 -5 -20z"/>
<path d="M2256 657 c3 -10 9 -15 12 -12 3 3 0 11 -7 18 -10 9 -11 8 -5 -6z"/>
<path d="M613 641 c1 -15 4 -17 19 -7 24 14 23 26 -1 26 -13 0 -19 -6 -18 -19z"/>
<path d="M1120 656 c0 -2 7 -7 16 -10 8 -3 12 -2 9 4 -6 10 -25 14 -25 6z"/>
<path d="M760 646 c0 -2 7 -6 15 -10 8 -3 15 -1 15 4 0 6 -7 10 -15 10 -8 0
-15 -2 -15 -4z"/>
<path d="M923 626 c-1 -12 1 -15 4 -9 3 10 8 10 19 -1 19 -20 18 -22 -13 -21
-18 0 -27 6 -25 15 2 10 0 11 -11 2 -8 -7 -18 -8 -22 -4 -5 4 -5 2 -2 -5 4 -6
1 -14 -5 -16 -8 -3 -4 -6 7 -7 36 -4 40 -5 72 -19 28 -11 31 -16 22 -33 -8
-15 -8 -19 0 -14 7 5 11 -10 11 -45 0 -41 3 -50 12 -41 16 16 17 124 0 130 -6
2 -9 9 -5 15 4 7 -2 5 -12 -3 -12 -10 -16 -11 -11 -2 13 21 14 62 2 69 -22 14
-42 9 -43 -11z"/>
<path d="M990 649 c0 -3 10 -29 21 -59 12 -30 22 -68 21 -85 0 -25 1 -27 8
-10 8 18 9 17 9 -6 1 -24 31 -52 31 -29 0 6 -4 10 -10 10 -5 0 -10 7 -10 15 0
26 -34 125 -43 125 -4 0 -6 4 -3 9 3 5 -1 14 -9 21 -8 7 -15 11 -15 9z"/>
<path d="M2275 600 c-52 -53 -56 -84 -4 -34 25 24 32 26 40 14 9 -13 10 -13 6
0 -4 16 6 29 38 49 15 9 16 11 3 7 -10 -3 -18 -1 -18 4 0 19 -17 9 -65 -40z"/>
<path d="M1570 625 c0 -16 16 -20 24 -6 3 5 -1 11 -9 15 -9 3 -15 0 -15 -9z"/>
<path d="M2375 620 c-10 -11 -15 -23 -12 -27 4 -3 7 -1 7 6 0 7 5 9 12 5 6 -4
8 -3 4 4 -3 6 2 15 11 21 10 6 13 11 7 11 -6 0 -19 -9 -29 -20z"/>
<path d="M2470 630 c-12 -8 -11 -10 8 -10 12 0 22 5 22 10 0 13 -11 13 -30 0z"/>
<path d="M558 623 c6 -2 9 -10 5 -16 -5 -8 -2 -8 9 0 8 7 19 9 23 5 5 -4 5 -1
1 6 -4 6 -17 12 -29 11 -12 0 -16 -3 -9 -6z"/>
<path d="M2511 611 c-8 -15 -8 -22 1 -27 7 -4 10 -4 6 1 -4 4 -3 14 4 22 6 7
8 16 5 19 -3 3 -10 -3 -16 -15z"/>
<path d="M620 605 c-7 -9 -8 -15 -2 -15 5 0 12 7 16 15 3 8 4 15 2 15 -2 0 -9
-7 -16 -15z"/>
<path d="M2423 595 c-3 -9 -3 -19 1 -22 3 -4 6 1 6 11 0 9 4 15 8 12 4 -2 14
-1 22 5 12 7 10 9 -8 9 -12 0 -25 -7 -29 -15z"/>
<path d="M123 592 c-9 -6 -8 -15 6 -36 15 -22 20 -24 24 -12 4 9 1 15 -6 13
-7 -1 -11 7 -10 21 3 25 3 25 -14 14z"/>
<path d="M400 591 c0 -6 4 -13 10 -16 6 -3 7 1 4 9 -7 18 -14 21 -14 7z"/>
<path d="M2533 588 c6 -18 -2 -23 -32 -19 -11 2 -11 0 0 -12 8 -8 20 -12 26
-10 8 3 13 -3 13 -14 0 -28 -9 -33 -37 -22 -33 12 -43 3 -12 -11 13 -6 35 -25
47 -43 21 -29 23 -30 17 -7 -4 14 -11 29 -15 34 -5 5 -3 15 4 22 15 15 12 73
-6 89 -8 7 -9 5 -5 -7z"/>
<path d="M205 569 c-4 -11 -4 -23 -1 -26 3 -4 6 1 6 10 0 8 5 17 12 19 9 3 9
6 1 11 -7 4 -14 -1 -18 -14z"/>
<path d="M1227 571 c-4 -17 -3 -21 5 -13 5 5 8 16 6 23 -3 8 -7 3 -11 -10z"/>
<path d="M680 565 c-10 -12 -10 -15 3 -15 8 0 17 7 21 15 3 8 2 15 -3 15 -5 0
-14 -7 -21 -15z"/>
<path d="M364 555 c-4 -8 -11 -12 -17 -8 -6 3 -7 1 -3 -5 10 -16 14 -15 26 8
6 11 8 20 5 20 -3 0 -8 -7 -11 -15z"/>
<path d="M1470 559 c12 -9 11 -10 -7 -6 -16 4 -20 1 -16 -11 4 -8 2 -13 -3 -9
-5 3 -10 -3 -10 -14 0 -21 16 -27 16 -6 1 7 6 5 14 -5 7 -10 19 -18 25 -18 7
0 9 -4 6 -10 -3 -5 -1 -10 4 -10 19 0 12 18 -16 39 -26 19 -27 22 -10 32 18
11 15 29 -6 29 -7 0 -6 -4 3 -11z"/>
<path d="M2310 560 c-14 -4 -24 -12 -22 -19 1 -7 -2 -10 -8 -6 -18 11 -40 -16
-40 -49 0 -25 37 -94 41 -76 5 30 3 78 -4 88 -6 7 -7 15 -3 19 3 3 6 0 6 -7 0
-9 7 -7 23 7 12 11 40 23 62 27 37 6 39 5 20 -8 -11 -9 -25 -20 -32 -26 -7 -5
-17 -10 -23 -10 -5 0 -10 -6 -11 -12 0 -7 -3 -22 -6 -33 -2 -11 -7 -46 -10
-77 -4 -46 -8 -55 -21 -51 -12 5 -14 1 -9 -18 6 -23 5 -23 -8 -5 -14 18 -15
18 -25 -9 -15 -38 -6 -59 18 -46 27 15 49 52 58 97 9 55 20 71 48 76 22 4 23
3 15 -25 -5 -17 -13 -35 -19 -41 -5 -5 -10 -17 -10 -25 0 -12 3 -11 18 2 10
10 26 17 35 17 25 0 21 -36 -6 -57 -13 -10 -22 -24 -19 -31 5 -15 34 -16 49
-1 15 15 5 79 -15 102 -16 18 -18 79 -6 121 6 18 6 18 -20 0 -14 -11 -26 -25
-26 -31 0 -15 -16 -17 -24 -4 -7 10 33 57 45 54 5 -2 9 2 9 7 0 6 9 19 20 30
11 11 17 20 13 21 -64 4 -92 4 -113 -1z m-40 -81 c0 -6 -4 -7 -10 -4 -5 3 -10
11 -10 16 0 6 5 7 10 4 6 -3 10 -11 10 -16z"/>
<path d="M2452 558 c-7 -7 -12 -20 -12 -30 0 -10 -3 -18 -8 -18 -4 0 -7 -20
-7 -45 0 -45 11 -60 21 -27 3 9 10 25 15 35 7 12 5 17 -5 17 -21 0 -8 38 14
42 16 3 17 6 6 20 -10 13 -15 15 -24 6z"/>
<path d="M389 555 c0 0 -2 -7 -4 -16 -1 -9 -6 -27 -10 -39 -5 -15 -4 -20 4
-16 6 4 11 16 11 27 0 17 11 24 33 20 5 -1 6 3 3 8 -4 5 2 12 11 14 10 3 3 5
-14 4 -18 -1 -33 -1 -34 -2z"/>
<path d="M533 545 c-3 -9 -3 -18 -1 -21 3 -3 8 4 11 16 6 23 -1 27 -10 5z"/>
<path d="M1196 545 c-3 -8 -1 -15 4 -15 6 0 10 7 10 15 0 8 -2 15 -4 15 -2 0
-6 -7 -10 -15z"/>
<path d="M1982 528 c-5 -22 -16 -34 -31 -38 -12 -3 -22 -8 -22 -12 2 -24 0
-28 -11 -22 -7 4 -8 3 -4 -5 6 -9 11 -9 23 0 12 10 16 10 24 -2 8 -12 9 -12 7
1 -1 8 4 26 12 40 15 26 24 70 16 70 -3 0 -9 -14 -14 -32z"/>
<path d="M2117 540 c3 -11 9 -20 15 -20 5 0 4 9 -2 20 -6 11 -12 20 -14 20 -2
0 -2 -9 1 -20z"/>
<path d="M165 540 c-3 -5 1 -10 10 -10 9 0 13 5 10 10 -3 6 -8 10 -10 10 -2 0
-7 -4 -10 -10z"/>
<path d="M880 540 c0 -5 -9 -10 -20 -10 -14 0 -20 -7 -20 -22 0 -17 3 -19 9
-10 6 10 16 3 40 -27 38 -48 58 -52 67 -14 7 28 -7 60 -25 56 -6 -2 -15 6 -21
17 -11 21 -30 27 -30 10z m30 -40 c0 -5 7 -7 15 -4 11 5 13 2 8 -12 -4 -12 -3
-15 5 -10 7 4 12 2 12 -3 0 -18 -21 -12 -41 11 -22 24 -23 28 -9 28 6 0 10 -4
10 -10z"/>
<path d="M326 517 c3 -10 9 -15 12 -12 3 3 0 11 -7 18 -10 9 -11 8 -5 -6z"/>
<path d="M1227 514 c3 -7 1 -14 -5 -14 -6 0 -13 6 -15 13 -4 9 -6 9 -6 0 -1
-6 4 -15 9 -18 6 -3 10 -11 10 -16 0 -6 -4 -8 -9 -5 -5 4 -7 -3 -4 -13 5 -18
6 -18 24 -3 11 9 15 18 9 20 -5 2 -10 8 -10 13 0 6 4 8 8 5 5 -3 9 1 9 9 0 8
-6 16 -13 19 -8 3 -11 0 -7 -10z"/>
<path d="M2195 520 c3 -5 1 -19 -5 -30 -9 -16 -8 -20 6 -20 10 0 14 5 10 15
-3 8 -1 15 4 15 6 0 10 -5 10 -12 0 -6 2 -9 5 -6 9 8 -5 36 -21 42 -8 3 -12 1
-9 -4z"/>
<path d="M170 510 c-9 -6 -10 -10 -3 -10 6 0 15 5 18 10 8 12 4 12 -15 0z"/>
<path d="M197 505 c-4 -8 -1 -17 6 -21 7 -4 9 -4 5 1 -4 4 -3 14 3 22 7 8 8
13 1 13 -5 0 -12 -7 -15 -15z"/>
<path d="M712 499 c-26 -20 -42 -74 -21 -67 8 3 13 11 12 17 -2 6 1 11 6 11 5
0 11 10 15 23 5 17 8 19 15 8 5 -7 14 -10 20 -7 10 7 42 -16 41 -29 -1 -20 1
-25 11 -25 5 0 8 4 5 8 -3 5 1 9 9 9 8 0 12 -4 9 -9 -3 -4 2 -8 10 -8 11 0 16
9 15 28 0 15 -3 21 -6 15 -2 -7 -9 -13 -14 -13 -6 0 -7 5 -4 10 3 6 -5 14 -19
20 -14 5 -26 14 -26 20 0 16 -55 8 -78 -11z"/>
<path d="M2716 503 c-6 -14 -5 -15 5 -6 7 7 10 15 7 18 -3 3 -9 -2 -12 -12z"/>
<path d="M0 484 c0 -17 4 -23 12 -18 8 5 9 2 5 -10 -4 -10 -3 -15 3 -11 5 3
14 -3 19 -14 14 -25 14 -41 1 -21 -6 10 -10 11 -10 3 0 -7 -7 -13 -15 -13 -8
0 -15 -4 -15 -9 0 -5 30 -8 68 -6 37 1 96 -4 132 -11 85 -18 111 -18 104 0 -4
9 -34 16 -104 21 l-99 6 -50 54 c-47 49 -51 52 -51 29z"/>
<path d="M257 493 c-4 -3 -7 -11 -7 -17 0 -6 5 -5 12 2 6 6 9 14 7 17 -3 3 -9
2 -12 -2z"/>
<path d="M401 484 c0 -11 3 -14 6 -6 3 7 2 16 -1 19 -3 4 -6 -2 -5 -13z"/>
<path d="M556 485 c-3 -9 -6 -22 -5 -28 0 -7 5 -1 10 12 5 13 8 26 5 28 -2 2
-6 -3 -10 -12z"/>
<path d="M2135 483 c0 -10 4 -23 7 -29 9 -13 -33 -16 -49 -2 -10 8 -13 7 -13
-4 0 -9 13 -15 41 -17 41 -2 41 -1 34 26 -8 33 -22 51 -20 26z"/>
<path d="M2624 487 c1 -9 5 -20 9 -23 11 -12 8 -24 -5 -20 -7 1 -10 1 -5 -1 4
-3 4 -10 0 -16 -4 -6 0 -8 9 -4 30 11 35 -115 6 -134 -10 -6 -13 -35 -7 -58 2
-7 -2 -16 -9 -18 -8 -3 -10 1 -5 13 4 12 3 15 -5 10 -7 -4 -12 -16 -12 -26 0
-13 -6 -19 -17 -17 -10 1 -19 -2 -20 -6 -3 -14 -37 -36 -55 -37 -9 0 -20 -5
-23 -11 -13 -19 4 -22 39 -5 44 21 63 21 47 2 -7 -9 -8 -17 -3 -20 11 -6 25
21 17 33 -2 4 18 25 45 45 28 21 51 43 51 50 1 11 0 148 -1 176 0 8 -14 30
-30 49 -16 19 -28 27 -26 18z m34 -246 c-15 -5 -19 4 -11 24 6 18 7 18 13 -1
4 -10 3 -21 -2 -23z m-78 -66 c0 -8 -4 -15 -8 -15 -5 0 -9 7 -9 15 0 8 4 15 9
15 4 0 8 -7 8 -15z"/>
<path d="M2473 465 c-20 -22 -16 -41 5 -23 9 9 23 13 30 11 18 -7 15 14 -4 21
-19 7 -16 8 -31 -9z"/>
<path d="M2560 470 c0 -5 5 -10 10 -10 6 0 10 5 10 10 0 6 -4 10 -10 10 -5 0
-10 -4 -10 -10z"/>
<path d="M373 446 c2 -17 9 -31 16 -32 6 -1 7 0 1 3 -5 2 -8 9 -5 14 4 5 1 17
-5 26 -8 15 -10 13 -7 -11z"/>
<path d="M485 459 c-4 -6 -5 -12 -2 -15 2 -3 7 2 10 11 7 17 1 20 -8 4z"/>
<path d="M732 458 c-20 -20 -14 -28 23 -28 19 0 35 4 35 8 0 17 -13 21 -31 11
-15 -7 -17 -6 -13 6 7 18 2 19 -14 3z"/>
<path d="M1477 459 c7 -7 15 -10 18 -7 3 3 -2 9 -12 12 -14 6 -15 5 -6 -5z"/>
<path d="M2214 445 c0 -14 4 -25 9 -25 10 0 9 38 -2 44 -5 3 -8 -5 -7 -19z"/>
<path d="M1435 450 c-3 -5 1 -10 9 -10 9 0 16 5 16 10 0 6 -4 10 -9 10 -6 0
-13 -4 -16 -10z"/>
<path d="M1045 440 c-3 -5 3 -10 15 -10 12 0 18 5 15 10 -3 6 -10 10 -15 10
-5 0 -12 -4 -15 -10z"/>
<path d="M2589 431 c6 -10 7 -21 4 -25 -3 -3 -2 -6 4 -6 5 0 9 -23 9 -52 -1
-38 -6 -57 -19 -66 -19 -14 -37 -8 -37 12 0 8 -10 12 -26 10 -27 -3 -28 4 -12
56 3 8 3 11 0 6 -2 -4 -8 -3 -12 4 -4 7 -8 -9 -8 -34 -1 -44 0 -47 28 -53 17
-3 30 -12 30 -20 0 -8 4 -11 10 -8 6 3 7 -1 4 -9 -4 -10 -1 -16 7 -17 8 -1 -4
-5 -26 -9 -26 -5 -45 -4 -55 4 -13 9 -13 9 -1 -6 7 -10 22 -16 35 -14 11 3 29
5 39 5 9 1 23 13 30 29 6 15 16 30 21 33 17 13 14 103 -6 142 -10 20 -21 37
-24 37 -2 0 0 -8 5 -19z m4 -171 c-3 -12 -8 -19 -11 -16 -5 6 5 36 12 36 2 0
2 -9 -1 -20z"/>
<path d="M660 429 c0 -5 -4 -7 -10 -4 -14 9 -12 -1 3 -13 10 -8 13 -6 14 9 1
10 0 19 -3 19 -2 0 -4 -5 -4 -11z"/>
<path d="M2520 431 c0 -6 4 -13 10 -16 6 -3 7 1 4 9 -7 18 -14 21 -14 7z"/>
<path d="M544 408 c-5 -7 -3 -8 6 -3 10 6 12 3 8 -12 -3 -11 0 -20 7 -20 7 0
10 10 7 24 -5 25 -17 30 -28 11z"/>
<path d="M716 388 c-9 -13 -13 -31 -10 -45 5 -19 3 -22 -12 -16 -12 4 -15 3
-10 -5 12 -21 15 -52 7 -75 -6 -15 -4 -26 4 -34 11 -10 15 2 20 65 3 42 10 87
15 100 11 26 35 29 48 6 7 -13 11 -14 17 -4 20 32 -57 40 -79 8z"/>
<path d="M2740 399 c0 -4 -10 -5 -22 -3 -21 4 -21 4 -3 -4 20 -9 52 -5 59 7 3
4 -4 7 -15 7 -10 0 -19 -3 -19 -7z"/>
<path d="M1862 376 c-21 -21 -21 -36 1 -36 6 0 7 3 4 7 -4 3 0 15 10 25 24 26
12 29 -15 4z"/>
<path d="M2350 385 c0 -8 2 -15 4 -15 2 0 6 7 10 15 3 8 1 15 -4 15 -6 0 -10
-7 -10 -15z"/>
<path d="M2965 386 c-36 -16 -115 -100 -115 -121 0 -20 10 -19 36 6 21 20 24
20 39 5 9 -9 21 -16 27 -16 6 0 20 -7 30 -17 17 -15 18 -15 18 5 0 15 -12 26
-45 41 -25 11 -45 23 -45 26 0 3 4 4 9 1 5 -4 12 0 14 6 4 10 6 10 6 1 1 -7 6
-13 11 -13 7 0 7 6 0 20 -7 13 -7 20 0 20 5 0 15 -9 22 -20 7 -11 17 -20 22
-20 5 0 1 9 -8 19 -18 19 -14 47 5 36 5 -4 9 3 9 14 0 12 -1 21 -2 21 -2 -1
-16 -7 -33 -14z"/>
<path d="M388 381 c10 -6 10 -10 -3 -21 -8 -7 -15 -17 -15 -22 0 -6 9 0 19 13
20 25 19 39 -2 39 -8 0 -8 -3 1 -9z"/>
<path d="M650 370 c0 -11 7 -20 15 -20 13 0 14 4 5 20 -6 11 -13 20 -15 20 -3
0 -5 -9 -5 -20z"/>
<path d="M1962 355 c0 -16 2 -22 5 -12 2 9 2 23 0 30 -3 6 -5 -1 -5 -18z"/>
<path d="M520 360 c0 -5 5 -10 11 -10 5 0 7 5 4 10 -3 6 -8 10 -11 10 -2 0 -4
-4 -4 -10z"/>
<path d="M2576 353 c-6 -14 -5 -15 5 -6 7 7 10 15 7 18 -3 3 -9 -2 -12 -12z"/>
<path d="M566 345 c4 -8 8 -15 10 -15 2 0 4 7 4 15 0 8 -4 15 -10 15 -5 0 -7
-7 -4 -15z"/>
<path d="M276 342 c-11 -2 -36 -15 -57 -27 -33 -21 -42 -23 -104 -15 -126 16
-152 -22 -60 -85 30 -21 55 -39 55 -40 0 -2 -7 -19 -15 -38 -8 -20 -15 -38
-15 -40 0 -7 134 31 170 49 41 20 74 48 101 86 19 27 19 27 0 38 -14 7 -22 7
-27 -2 -4 -7 -3 -8 4 -4 16 9 15 -7 0 -22 -16 -16 -41 -15 -35 1 3 8 -1 14 -8
14 -7 0 -11 -6 -8 -13 8 -21 -15 -26 -26 -5 -8 14 -8 21 2 24 9 4 9 6 0 6 -20
2 -23 -15 -6 -38 10 -15 19 -19 25 -13 6 6 17 8 24 5 16 -6 19 -33 3 -33 -5 0
-7 5 -4 10 3 6 1 10 -4 10 -6 0 -11 -7 -11 -15 0 -8 -9 -19 -19 -25 -26 -13
-40 -13 -21 1 13 9 13 10 0 6 -8 -2 -15 -10 -15 -18 0 -8 -8 -13 -18 -11 -9 2
-17 -3 -17 -10 0 -7 -9 0 -20 17 -16 25 -19 26 -17 8 0 -12 5 -19 11 -16 5 3
6 1 2 -5 -4 -6 -14 -8 -23 -5 -11 4 -14 3 -9 -5 4 -8 2 -10 -8 -6 -8 3 -12 12
-9 20 3 8 9 11 14 8 5 -3 9 -1 9 5 0 5 -7 14 -15 19 -13 7 -12 14 8 53 13 24
31 45 39 47 22 4 28 -30 8 -46 -12 -10 -10 -10 13 0 15 6 24 14 19 17 -16 11
-21 39 -7 45 10 3 12 0 8 -12 -4 -11 2 -8 16 8 12 14 19 18 15 10 -6 -12 -3
-11 12 2 19 17 39 19 61 5 7 -5 9 -1 6 12 -6 22 -20 29 -47 23z m-178 -90 c16
-2 22 2 23 15 0 11 3 13 6 5 3 -7 -2 -21 -12 -32 -15 -16 -19 -17 -46 -3 -28
14 -37 32 -22 47 4 3 12 -1 17 -11 6 -10 21 -19 34 -21z m12 24 c0 -11 -19
-15 -25 -6 -3 5 1 10 9 10 9 0 16 -2 16 -4z"/>
<path d="M1795 310 c-10 -11 -16 -22 -13 -25 3 -3 13 4 23 15 10 11 16 22 13
25 -3 3 -13 -4 -23 -15z"/>
<path d="M1829 298 c-19 -19 -23 -30 -16 -37 16 -16 32 -14 48 5 12 15 11 16
-11 9 -25 -8 -25 -7 -6 13 28 32 15 41 -15 10z"/>
<path d="M2362 310 c-18 -29 -15 -36 8 -15 20 18 26 35 12 35 -4 0 -13 -9 -20
-20z"/>
<path d="M267 295 c-4 -8 -3 -16 1 -19 4 -3 9 4 9 15 2 23 -3 25 -10 4z"/>
<path d="M431 294 c0 -11 3 -14 6 -6 3 7 2 16 -1 19 -3 4 -6 -2 -5 -13z"/>
<path d="M2440 299 c0 -5 5 -7 10 -4 6 3 10 8 10 11 0 2 -4 4 -10 4 -5 0 -10
-5 -10 -11z"/>
<path d="M470 291 c0 -6 4 -13 10 -16 6 -3 7 1 4 9 -7 18 -14 21 -14 7z"/>
<path d="M1876 266 c-26 -41 -52 -50 -76 -26 -25 25 -29 25 -24 3 2 -10 0 -24
-5 -32 -11 -17 -46 -6 -35 10 4 8 3 9 -4 5 -15 -9 -4 -36 15 -36 8 0 11 -5 8
-12 -4 -7 4 -1 17 15 28 32 36 33 54 10 10 -14 17 -16 31 -7 10 6 18 17 18 25
1 8 7 25 14 37 17 33 7 38 -13 8z m-6 -40 c0 -2 -8 -10 -17 -17 -16 -13 -17
-12 -4 4 13 16 21 21 21 13z"/>
<path d="M2847 218 c-28 -15 -14 -93 28 -154 45 -64 44 -64 72 -53 15 5 20 14
16 28 -5 20 -33 38 -33 22 0 -5 6 -11 13 -14 9 -3 8 -8 -3 -18 -8 -8 -12 -10
-8 -5 4 4 0 15 -8 23 -8 8 -11 19 -8 25 4 6 2 8 -4 4 -18 -11 -54 45 -47 74 4
14 9 32 10 40 2 8 4 16 4 18 1 1 10 -2 22 -8 11 -7 18 -14 15 -17 -3 -3 -14 0
-23 8 -17 13 -17 12 0 -8 12 -14 15 -23 8 -28 -6 -3 -11 -1 -11 6 0 7 -3 9 -6
6 -4 -4 -1 -14 6 -22 12 -14 15 -12 27 16 10 24 17 29 30 24 10 -4 24 -8 30
-8 8 0 11 -10 8 -25 -2 -13 -1 -21 2 -18 17 17 13 55 -7 66 -31 17 -116 28
-133 18z"/>
<path d="M200 209 c0 -5 5 -7 10 -4 6 3 10 8 10 11 0 2 -4 4 -10 4 -5 0 -10
-5 -10 -11z"/>
<path d="M1790 199 c0 -5 5 -7 10 -4 6 3 10 8 10 11 0 2 -4 4 -10 4 -5 0 -10
-5 -10 -11z"/>
<path d="M957 193 c-4 -3 -7 -11 -7 -17 0 -6 5 -5 12 2 6 6 9 14 7 17 -3 3 -9
2 -12 -2z"/>
<path d="M2200 191 c0 -5 7 -11 15 -15 8 -3 15 -1 15 3 0 5 -7 11 -15 15 -8 3
-15 1 -15 -3z"/>
<path d="M2677 189 c-9 -6 -14 -15 -11 -21 5 -7 2 -9 -8 -6 -22 9 -41 -27 -23
-42 18 -15 20 -45 3 -34 -7 4 -8 3 -4 -5 4 -6 11 -9 16 -6 4 3 14 -3 21 -12
10 -12 10 -14 2 -9 -7 4 -13 2 -13 -3 0 -6 7 -11 16 -11 9 0 12 -5 8 -12 -4
-7 -3 -8 4 -4 12 7 7 28 -16 64 -14 21 -13 27 7 63 25 44 25 53 -2 38z m-27
-49 c0 -5 -5 -10 -11 -10 -5 0 -7 5 -4 10 3 6 8 10 11 10 2 0 4 -4 4 -10z"/>
<path d="M430 180 c0 -5 -7 -10 -16 -10 -11 0 -14 -6 -9 -21 5 -15 4 -19 -4
-15 -6 4 -11 2 -11 -5 0 -7 -7 -4 -15 7 -14 18 -14 16 -9 -21 7 -48 20 -66 41
-58 12 5 15 2 10 -10 -4 -11 -1 -17 7 -17 16 0 15 15 -3 49 -23 41 -1 69 59
77 55 7 60 15 11 16 -17 1 -31 5 -31 10 0 4 -7 8 -15 8 -8 0 -15 -4 -15 -10z"/>
<path d="M2947 160 c3 -11 9 -17 15 -14 5 3 4 12 -3 20 -16 19 -18 18 -12 -6z"/>
<path d="M314 154 c-18 -14 -18 -15 4 -4 12 6 22 13 22 15 0 8 -5 6 -26 -11z"/>
<path d="M505 140 c-3 -5 -1 -10 4 -10 6 0 11 5 11 10 0 6 -2 10 -4 10 -3 0
-8 -4 -11 -10z"/>
<path d="M536 134 c-3 -8 -2 -12 4 -9 6 3 10 -1 10 -9 0 -8 4 -17 8 -20 4 -2
8 4 8 15 0 10 -4 19 -9 19 -4 0 -5 5 -2 10 3 6 2 10 -3 10 -6 0 -13 -7 -16
-16z"/>
<path d="M2772 119 c6 -16 12 -28 14 -26 5 5 -13 57 -20 57 -3 0 0 -14 6 -31z"/>
<path d="M50 125 c-7 -8 -8 -15 -2 -15 5 0 15 7 22 15 7 8 8 15 2 15 -5 0 -15
-7 -22 -15z"/>
<path d="M850 120 c0 -11 4 -20 9 -20 5 0 7 9 4 20 -3 11 -7 20 -9 20 -2 0 -4
-9 -4 -20z"/>
<path d="M875 129 c-9 -13 -6 -15 25 -23 14 -3 19 -3 13 0 -7 3 -13 12 -13 20
0 16 -16 19 -25 3z"/>
<path d="M2146 131 c-4 -7 -5 -15 -2 -18 9 -9 19 4 14 18 -4 11 -6 11 -12 0z"/>
<path d="M2205 133 c11 -3 26 -10 33 -15 9 -8 11 -7 6 6 -4 10 -16 16 -33 15
-20 -1 -22 -2 -6 -6z"/>
<path d="M2250 136 c0 -2 11 -6 25 -8 13 -3 22 -1 19 3 -5 9 -44 13 -44 5z"/>
<path d="M2355 130 c4 -6 10 -8 15 -5 5 3 11 1 15 -5 3 -5 11 -10 16 -10 6 0
7 5 4 10 -8 13 8 13 21 0 12 -12 44 -3 44 11 0 5 -27 9 -61 9 -38 0 -58 -4
-54 -10z"/>
<path d="M2870 132 c0 -7 5 -12 10 -12 6 0 10 -7 10 -15 0 -20 16 -19 24 2 4
10 4 14 0 10 -4 -4 -16 0 -26 10 -11 9 -18 11 -18 5z"/>
<path d="M245 88 c-13 -31 -55 -68 -55 -49 0 5 5 11 12 13 7 3 9 12 4 23 -6
16 -9 17 -16 5 -8 -13 -10 -13 -10 -1 0 11 -3 12 -12 3 -8 -8 -8 -15 2 -27 7
-9 8 -15 2 -15 -6 0 -12 5 -14 11 -2 5 -11 7 -21 3 -12 -4 -15 -10 -7 -19 10
-12 4 -25 -12 -25 -5 0 -6 4 -3 10 3 6 -1 7 -9 4 -9 -3 -16 -1 -16 5 0 7 -6 8
-17 2 -10 -5 -29 -14 -43 -20 -20 -8 -10 -10 53 -8 43 2 82 8 85 13 4 6 18 11
32 12 14 0 26 6 28 12 6 18 21 11 17 -9 -2 -14 3 -20 21 -24 29 -5 37 2 23 19
-8 10 -6 13 8 14 46 1 60 5 60 17 0 7 -4 10 -9 7 -4 -3 -8 4 -8 16 0 27 -46
46 -68 28 -12 -10 -14 -10 -8 0 4 6 4 12 1 12 -3 0 -12 -15 -20 -32z m50 2
c-3 -5 -1 -10 4 -10 6 0 11 5 11 10 0 6 4 10 10 10 5 0 9 -11 8 -25 -3 -30
-12 -31 -37 -6 -14 14 -16 21 -8 25 18 7 19 7 12 -4z m-5 -31 c0 -6 -7 -12
-15 -15 -14 -6 -13 -8 2 -21 17 -13 17 -14 -1 -5 -10 5 -20 21 -22 35 -2 20 1
24 17 20 10 -3 19 -9 19 -14z"/>
<path d="M447 100 c3 -11 7 -20 9 -20 2 0 4 9 4 20 0 11 -4 20 -9 20 -5 0 -7
-9 -4 -20z"/>
<path d="M934 109 c-3 -6 -1 -15 6 -19 7 -4 10 -15 7 -25 -4 -9 -3 -14 3 -10
13 8 13 52 1 60 -5 3 -13 0 -17 -6z"/>
<path d="M1023 103 c-3 -8 -3 -17 1 -20 3 -4 6 1 6 10 0 10 5 14 15 11 8 -4
15 -2 15 3 0 15 -31 11 -37 -4z"/>
<path d="M0 99 c0 -5 5 -7 10 -4 5 3 10 8 10 11 0 2 -4 4 -10 4 -5 0 -10 -5
-10 -11z"/>
<path d="M2330 103 c0 -6 8 -17 18 -24 16 -13 16 -13 2 6 -8 11 -16 22 -17 24
-2 2 -3 0 -3 -6z"/>
<path d="M2360 106 c0 -2 8 -10 18 -17 15 -13 16 -12 3 4 -13 16 -21 21 -21
13z"/>
<path d="M505 90 c-18 -29 27 -73 49 -49 8 9 7 10 -6 6 -20 -7 -42 17 -34 38
6 17 0 20 -9 5z"/>
<path d="M593 85 c0 -11 4 -12 13 -4 8 7 14 7 19 -1 3 -6 11 -7 18 -3 7 4 4 9
-9 14 -30 12 -41 10 -41 -6z"/>
<path d="M880 92 c0 -6 -7 -9 -16 -8 -9 0 -19 -6 -22 -14 -4 -13 -3 -13 10 -2
13 10 17 10 21 0 4 -11 6 -10 6 0 1 7 6 10 11 7 6 -3 10 -2 10 4 0 5 -4 13
-10 16 -5 3 -10 2 -10 -3z"/>
<path d="M2275 82 l19 -23 -26 5 c-15 2 -31 -1 -36 -7 -8 -9 0 -12 29 -14 45
-1 51 14 17 43 l-23 19 20 -23z"/>
<path d="M2554 81 c0 -9 -5 -15 -12 -13 -8 1 -11 -2 -8 -7 3 -5 -5 -11 -18
-13 -18 -4 -27 1 -35 16 -10 20 -11 20 -8 1 2 -24 -41 -35 -54 -13 -5 7 -9 8
-9 3 0 -6 -9 -11 -20 -12 -11 -1 -20 3 -20 9 0 6 -7 5 -17 -3 -9 -8 -14 -9
-11 -4 4 6 -2 11 -13 11 -30 0 -22 -26 9 -27 15 0 37 -2 50 -3 12 -2 22 2 22
8 0 7 3 7 8 0 5 -8 23 -9 54 -5 26 4 54 3 64 -2 11 -6 15 -6 10 1 -3 5 8 20
24 33 36 29 37 37 6 37 -15 0 -23 -6 -22 -17z"/>
<path d="M990 79 c0 -5 5 -7 10 -4 6 3 10 8 10 11 0 2 -4 4 -10 4 -5 0 -10 -5
-10 -11z"/>
<path d="M1046 73 c-6 -14 -5 -15 5 -6 7 7 10 15 7 18 -3 3 -9 -2 -12 -12z"/>
<path d="M1525 80 c4 -6 11 -8 16 -5 14 9 11 15 -7 15 -8 0 -12 -5 -9 -10z"/>
<path d="M470 69 c0 -5 -5 -7 -11 -3 -8 4 -8 0 0 -15 15 -27 16 -26 19 4 1 14
0 25 -3 25 -3 0 -5 -5 -5 -11z"/>
<path d="M2183 65 c0 -8 4 -12 9 -9 5 3 6 10 3 15 -9 13 -12 11 -12 -6z"/>
<path d="M700 60 c0 -5 5 -10 11 -10 5 0 7 5 4 10 -3 6 -8 10 -11 10 -2 0 -4
-4 -4 -10z"/>
<path d="M1542 63 c-10 -4 -10 -8 0 -21 11 -13 10 -15 -5 -9 -11 4 -16 3 -12
-4 11 -16 28 -5 30 19 1 12 1 22 1 21 -1 0 -7 -3 -14 -6z"/>
<path d="M2769 57 c15 -19 15 -19 -14 -35 -11 -6 -15 -12 -9 -12 5 0 19 6 30
14 19 15 19 15 0 33 -18 16 -19 17 -7 0z"/>
<path d="M567 41 c-4 -17 -3 -21 5 -13 5 5 8 16 6 23 -3 8 -7 3 -11 -10z"/>
<path d="M2591 46 c-9 -11 -8 -14 6 -12 10 0 18 -5 18 -13 0 -8 7 -16 15 -18
9 -3 11 -1 5 4 -5 4 -10 14 -11 21 -2 26 -4 32 -13 32 -5 0 -14 -6 -20 -14z"/>
<path d="M493 31 c1 -14 9 -26 17 -28 10 -3 11 -2 4 4 -7 4 -14 17 -17 28 -5
16 -5 15 -4 -4z"/>
<path d="M1005 40 c-3 -5 -1 -10 4 -10 6 0 11 5 11 10 0 6 -2 10 -4 10 -3 0
-8 -4 -11 -10z"/>
<path d="M2116 38 c3 -5 10 -6 15 -3 13 9 11 12 -6 12 -8 0 -12 -4 -9 -9z"/>
<path d="M590 29 c0 -5 5 -7 10 -4 6 3 10 8 10 11 0 2 -4 4 -10 4 -5 0 -10 -5
-10 -11z"/>
<path d="M2981 17 c-13 -21 -12 -21 5 -5 10 10 16 20 13 22 -3 3 -11 -5 -18
-17z"/>
<path d="M946 17 c3 -10 9 -15 12 -12 3 3 0 11 -7 18 -10 9 -11 8 -5 -6z"/>
<path d="M975 19 c-4 -6 -5 -12 -2 -15 2 -3 7 2 10 11 7 17 1 20 -8 4z"/>
<path d="M876 8 c3 -5 10 -6 15 -3 13 9 11 12 -6 12 -8 0 -12 -4 -9 -9z"/>
</g>
</svg>
